<?xml version="1.0" encoding="UTF-8" standalone="no"?>
<svg
   id="Layer_1"
   data-name="Layer 1"
   viewBox="0 0 202.18 264.54"
   version="1.1"
   sodipodi:docname="dazz_id_logo.svg"
   xml:space="preserve"
   inkscape:version="1.2.1 (9c6d41e4, 2022-07-14)"
   xmlns:inkscape="http://www.inkscape.org/namespaces/inkscape"
   xmlns:sodipodi="http://sodipodi.sourceforge.net/DTD/sodipodi-0.dtd"
   xmlns="http://www.w3.org/2000/svg"
   xmlns:svg="http://www.w3.org/2000/svg"><sodipodi:namedview
     id="namedview400"
     pagecolor="#ffffff"
     bordercolor="#000000"
     borderopacity="0.25"
     inkscape:showpageshadow="2"
     inkscape:pageopacity="0.0"
     inkscape:pagecheckerboard="0"
     inkscape:deskcolor="#d1d1d1"
     showgrid="false"
     inkscape:zoom="0.43029415"
     inkscape:cx="113.87559"
     inkscape:cy="118.52357"
     inkscape:window-width="1417"
     inkscape:window-height="778"
     inkscape:window-x="0"
     inkscape:window-y="0"
     inkscape:window-maximized="0"
     inkscape:current-layer="Layer_1" /><defs
     id="defs265"><style
       id="style254">.cls-1{fill:none;}.cls-2{clip-path:url(#clip-path);}.cls-3{fill:#f2a341;}.cls-4{clip-path:url(#clip-path-2);}.cls-5{fill:#6fa8bf;}.cls-6{clip-path:url(#clip-path-3);}.cls-7{fill:#f2e41d;}</style><clipPath
       id="clip-path"
       transform="translate(-12.1 23.49)"><path
         class="cls-1"
         d="M44.29,153.52l20.52,35.54a14.61,14.61,0,0,0,12.64,7.3h82.08a14.6,14.6,0,0,0,12.64-7.3l20.52-35.54L148.15,127.8a59.35,59.35,0,0,0-59.32,0Z"
         id="path256" /></clipPath><clipPath
       id="clip-path-2"
       transform="translate(-12.1 23.49)"><path
         class="cls-1"
         d="M41.93,148.48,21.41,112.94a14.62,14.62,0,0,1,0-14.59l41-71.09A14.62,14.62,0,0,1,75.09,20h41V71.39a59.31,59.31,0,0,1-29.66,51.38Z"
         id="path259" /></clipPath><clipPath
       id="clip-path-3"
       transform="translate(-12.1 23.49)"><path
         class="cls-1"
         d="M195.78,148.48l20.52-35.54a14.57,14.57,0,0,0,0-14.59l-41-71.09A14.62,14.62,0,0,0,162.62,20h-41V71.39a59.34,59.34,0,0,0,29.66,51.38Z"
         id="path262" /></clipPath></defs><path
     fill="#f2a442"
     opacity="1"
     stroke="none"
     d="m 51.648408,195.81355 c -1.829067,-3.16213 -3.61941,-6.26768 -5.394409,-9.38194 -1.872115,-3.28464 -3.723585,-6.58105 -5.596591,-9.86518 -0.710371,-1.24557 -1.417633,-2.49606 -2.20014,-3.69615 -0.429393,-0.65858 -0.323186,-1.11312 0.290105,-1.4814 1.465628,-0.88007 2.946483,-1.73483 4.422944,-2.59681 1.534247,-0.89574 3.069623,-1.78955 4.60618,-2.68127 1.531276,-0.88871 3.064244,-1.77447 4.597141,-2.66035 1.995032,-1.15298 3.990602,-2.305 5.986191,-3.45702 1.531969,-0.88437 3.067715,-1.76227 4.595538,-2.65374 1.50288,-0.87695 2.994171,-1.77374 4.497386,-2.65012 1.581974,-0.9223 3.174283,-1.82683 4.757889,-2.74635 1.42274,-0.82607 2.820224,-1.69781 4.263872,-2.48521 2.234969,-1.21896 4.476552,-2.43041 6.760028,-3.55423 1.535195,-0.75556 3.110223,-1.4699 4.734611,-1.99472 2.136205,-0.69021 4.320474,-1.25944 6.516063,-1.73209 4.217304,-0.90786 8.504224,-1.12747 12.806194,-0.97943 3.6664,0.12614 7.31004,0.49398 10.83743,1.57001 2.65279,0.80924 5.34156,1.55167 7.90112,2.60016 2.28825,0.93736 4.43001,2.2371 6.62049,3.40673 1.56306,0.8346 3.11032,1.70023 4.6451,2.58588 1.45455,0.83934 2.87579,1.73629 4.32613,2.58316 1.55715,0.90923 3.13381,1.78492 4.69694,2.68399 1.48432,0.85375 2.96493,1.71414 4.44214,2.58015 1.96001,1.1491 3.91491,2.3069 5.87243,3.4602 1.5805,0.93117 3.15673,1.86973 4.74367,2.78977 1.93658,1.12277 3.88219,2.22989 5.82424,3.34321 1.42731,0.81822 2.86855,1.6134 4.27668,2.46339 0.61942,0.37389 0.85372,0.82023 0.38579,1.61449 -2.74343,4.65684 -5.42874,9.34807 -8.11398,14.03897 -1.87828,3.28122 -3.70611,6.5914 -5.59173,9.86838 -1.69124,2.93921 -3.28654,5.9503 -5.20892,8.73296 -0.97666,1.41369 -2.48455,2.53091 -3.92215,3.54027 -2.59933,1.82505 -5.64955,1.99433 -8.71664,1.99321 -23.73669,-0.009 -47.473384,-0.004 -71.210081,-0.005 -2.339609,-1.6e-4 -4.646228,-0.30331 -6.753343,-1.34552 -2.426758,-1.20032 -4.386699,-2.96423 -5.750405,-5.35215 -1.388237,-2.43087 -2.818044,-4.83795 -4.226134,-7.25752 -0.234603,-0.40313 -0.451319,-0.81667 -0.721779,-1.27812 z"
     id="path1409"
     style="stroke-width:0.188393" /><path
     fill="#70a8bf"
     opacity="1"
     stroke="none"
     d="m 17.203481,135.50541 c -1.983703,-3.41796 -2.688153,-6.91185 -1.561833,-10.74998 0.772044,-2.63083 2.3313,-4.81858 3.599857,-7.16967 1.305286,-2.41924 2.727217,-4.77567 4.103613,-7.15638 1.217498,-2.10589 2.454749,-4.20044 3.660955,-6.31273 1.312919,-2.29918 2.585422,-4.621492 3.902946,-6.917996 1.158781,-2.01982 2.376673,-4.00583 3.52939,-6.029031 1.152325,-2.022514 2.241194,-4.081103 3.38641,-6.107754 0.809327,-1.432231 1.6728,-2.833733 2.500139,-4.255934 0.890031,-1.529995 1.769177,-3.066344 2.647377,-4.603179 0.87709,-1.534925 1.743556,-3.075925 2.621243,-4.610507 0.87866,-1.536267 1.767257,-3.066867 2.648133,-4.601882 0.895133,-1.559887 1.784884,-3.122847 2.679332,-4.683119 0.851019,-1.484508 1.726407,-2.955514 2.553043,-4.453457 1.459229,-2.644242 3.260379,-4.879337 6.092436,-6.247583 2.030769,-0.98114 4.08085,-1.444667 6.306439,-1.441486 11.868695,0.01694 23.737427,0.0054 35.606149,0.0054 1.08898,-6.1e-5 1.22624,0.14405 1.22621,1.269142 -3.8e-4,14.977198 0.0324,29.954528 -0.0267,44.931488 -0.0133,3.370967 -0.11896,6.744538 -0.80925,10.091938 -0.59347,2.87791 -1.1189,5.76368 -2.25156,8.48097 -1.29055,3.09601 -2.458183,6.27739 -4.096133,9.18695 -2.910981,5.17091 -6.588812,9.8007 -11.164544,13.63758 -2.055533,1.72364 -4.130467,3.4515 -6.357542,4.936 -2.584035,1.72243 -5.346361,3.17704 -8.028361,4.75294 -2.063426,1.21243 -4.112308,2.44998 -6.185819,3.64482 -2.426814,1.39839 -4.887192,2.73877 -7.30731,4.14838 -2.366607,1.37848 -4.685771,2.83843 -7.053927,4.21412 -2.010458,1.16791 -4.077292,2.23868 -6.089191,3.40424 -1.881848,1.09016 -3.7238,2.24918 -5.584379,3.37615 -0.503857,0.30518 -1.001376,0.623 -1.520058,0.90098 -0.635026,0.34031 -1.027013,-0.0665 -1.305619,-0.54364 -1.055545,-1.80869 -2.079189,-3.63602 -3.118972,-5.45395 -1.706557,-2.98369 -3.422809,-5.96185 -5.122859,-8.94922 -1.39141,-2.44503 -2.752405,-4.90739 -4.150041,-7.34882 -1.630014,-2.84736 -3.286521,-5.67958 -4.927077,-8.52094 -0.140801,-0.24386 -0.248254,-0.50699 -0.402457,-0.82357 M 101.59429,94.344744 c 0,2.444494 0,4.889007 0,7.333546 0.12846,0.006 0.25691,0.0133 0.38537,0.0199 0.0597,-0.46352 0.17154,-0.92702 0.1718,-1.39059 0.009,-15.91175 0.007,-31.823502 0.007,-47.735253 -1e-5,-1.840676 -1.9e-4,-1.840513 -1.79142,-1.840504 -11.95734,9e-6 -23.914698,-8.99e-4 -35.872057,0.0045 -0.371459,1.81e-4 -0.742901,0.06923 -1.114361,0.106159 -0.0018,0.108214 -0.0045,0.216442 -0.0063,0.32467 0.360737,0.04324 0.721437,0.12415 1.082201,0.124349 11.925953,0.0063 23.851926,0.0054 35.777887,0.0054 1.35802,1.8e-5 1.35902,7.46e-4 1.35905,1.33816 1.9e-4,13.840394 1.4e-4,27.680797 1.4e-4,41.709585 z"
     id="path1411"
     style="stroke-width:0.188393" /><path
     fill="#faf6af"
     opacity="1"
     stroke="none"
     d="m 114.47887,124.46343 c -0.32753,-0.70581 -0.60934,-1.35539 -0.9275,-1.98666 -0.66375,-1.31692 -1.3902,-2.60417 -2.00579,-3.94272 -0.38281,-0.8324 -0.60211,-1.73922 -0.90848,-2.60782 -0.41744,-1.18352 -0.8771,-2.35308 -1.2604,-3.54732 -0.18784,-0.58521 -0.20437,-1.22342 -0.36694,-1.81895 -0.75405,-2.76188 -1.37294,-5.53196 -1.40752,-8.42584 -0.0477,-3.97464 -0.31348,-7.947463 -0.32716,-11.921619 -0.0447,-12.933322 -0.0169,-25.866888 -0.0171,-38.800365 -2e-5,-1.564668 0.0475,-1.613856 1.56437,-1.613847 11.45805,1.18e-4 22.91612,-0.0072 34.37416,0.0093 1.49977,0.0018 3.01694,0.0097 4.49297,0.233273 1.00901,0.152824 1.9788,0.643073 2.93411,1.056432 2.19807,0.951134 3.82429,2.630355 5.29569,4.437749 0.71554,0.878912 1.19701,1.94893 1.78026,2.934905 0.94372,1.595374 1.90394,3.18144 2.81996,4.792582 0.85386,1.501862 1.63774,3.043519 2.49188,4.545211 0.8806,1.548243 1.82281,3.061369 2.71148,4.605152 0.62413,1.084247 1.18371,2.205673 1.80871,3.289386 0.66032,1.144938 1.37994,2.255614 2.04395,3.398506 0.57319,0.986634 1.09007,2.005898 1.65794,2.995758 0.93767,1.634447 1.89901,3.255315 2.84537,4.884788 0.8202,1.412188 1.6456,2.821539 2.44657,4.244605 0.89215,1.585064 1.74797,3.190586 2.64017,4.775631 1.18313,2.10197 2.37377,4.199953 3.58426,6.286273 1.1489,1.98013 2.3528,3.92859 3.48661,5.91718 1.37904,2.4187 2.6895,4.87647 4.06766,7.29569 1.36304,2.39278 2.81905,4.73368 4.13842,7.14967 0.46472,0.851 0.80528,1.83821 0.91794,2.79668 0.15883,1.35128 0.0141,2.73523 0.0694,4.10239 0.0946,2.35061 -0.94034,4.30244 -2.04705,6.25925 -1.15152,2.03606 -2.18044,4.1416 -3.33863,6.17364 -1.08412,1.90205 -2.29668,3.73054 -3.39882,5.62278 -1.13715,1.95238 -2.19671,3.94977 -3.314,5.91393 -0.87144,1.53196 -1.79409,3.03477 -2.66697,4.56594 -0.88896,1.55941 -1.73955,3.14069 -2.61696,4.70679 -0.78656,1.40394 -1.57245,2.8086 -2.38739,4.19608 -0.35976,0.61252 -1.01231,0.73223 -1.56968,0.46435 -1.01581,-0.48831 -1.9673,-1.11178 -2.93935,-1.68945 -1.53471,-0.91208 -3.05771,-1.84406 -4.59771,-2.74708 -1.65416,-0.96999 -3.32165,-1.91728 -4.98441,-2.87264 -1.96039,-1.12636 -3.92628,-2.24322 -5.88156,-3.37836 -1.49753,-0.86943 -2.9784,-1.76746 -4.47378,-2.64064 -1.51503,-0.88463 -3.04443,-1.74473 -4.55676,-2.63388 -1.09204,-0.64207 -2.15426,-1.33523 -3.25215,-1.96672 -1.08866,-0.62619 -2.20888,-1.19712 -3.30858,-1.80445 -0.98845,-0.5459 -1.97899,-1.08948 -2.94812,-1.66835 -1.10753,-0.66155 -2.21517,-1.32745 -3.28226,-2.05117 -1.99861,-1.3555 -4.08815,-2.61261 -5.92046,-4.16896 -2.52584,-2.14544 -4.94453,-4.43915 -7.22416,-6.84467 -1.53016,-1.61465 -2.75905,-3.5189 -4.08531,-5.3211 -0.74827,-1.0168 -1.42074,-2.08936 -2.15661,-3.20131 m -6.471,-22.90518 c 0.29188,2.00787 0.46641,4.04184 0.90617,6.01677 0.51829,2.3276 1.24898,4.60915 1.92465,6.89974 0.21799,0.73896 0.55022,1.44454 0.8354,2.16332 0.57901,1.45932 1.02534,2.99171 1.77265,4.35938 1.32395,2.4228 2.73068,4.81455 4.29228,7.08916 1.42775,2.07958 2.97633,4.10906 4.70132,5.94478 3.56373,3.79252 7.55999,7.08106 12.12638,9.64321 2.58825,1.45223 5.13047,2.98683 7.68738,4.49453 1.54755,0.91253 3.07397,1.86113 4.62751,2.76321 1.54649,0.89802 3.12315,1.74401 4.67152,2.63887 1.52412,0.88087 3.02391,1.8037 4.54435,2.691 1.49102,0.87012 2.9953,1.71742 4.49246,2.57703 1.4512,0.83321 2.9101,1.65356 4.34832,2.50861 1.43561,0.85345 2.83735,1.76411 4.27668,2.61098 1.62736,0.95757 3.2956,1.84625 4.91207,2.82123 0.47488,0.28641 0.74518,0.23167 0.99543,-0.19914 0.26543,-0.45702 0.50333,-0.92994 0.76415,-1.3897 0.88303,-1.5567 1.76787,-3.11236 2.65778,-4.66516 0.87879,-1.53333 1.76821,-3.06059 2.6462,-4.5944 0.87691,-1.53191 1.74299,-3.07001 2.61843,-4.60276 0.87655,-1.53465 1.75272,-3.06958 2.64027,-4.59787 0.84042,-1.44713 1.70315,-2.88137 2.54198,-4.32944 0.91541,-1.58034 1.81538,-3.16963 2.72071,-4.75583 0.59992,-1.05109 1.30278,-2.05924 1.76846,-3.16697 0.54996,-1.30821 0.91435,-2.69695 1.32267,-4.06173 0.71559,-2.39165 -0.0592,-4.66516 -0.76327,-6.87828 -0.43326,-1.36132 -1.29756,-2.59026 -2.00433,-3.85858 -1.04123,-1.86842 -2.10403,-3.72504 -3.17714,-5.57537 -1.13479,-1.95675 -2.31446,-3.88765 -3.43446,-5.85265 -1.37795,-2.41755 -2.68596,-4.87519 -4.07633,-7.28536 -1.63732,-2.838304 -3.35755,-5.628764 -4.99024,-8.469606 -1.13918,-1.982179 -2.15246,-4.036731 -3.29217,-6.018596 -1.63713,-2.846852 -3.36089,-5.643818 -5.00409,-8.487274 -1.14581,-1.982757 -2.1902,-4.024035 -3.33071,-6.009989 -1.63563,-2.848133 -3.31892,-5.668881 -4.97936,-8.502795 -1.50204,-2.56356 -2.93936,-5.167573 -4.51673,-7.683871 -1.88781,-3.011526 -4.82089,-4.464917 -8.33564,-5.237549 -0.12313,-0.01993 -0.24625,-0.05728 -0.36938,-0.05738 -12.61101,-0.01125 -25.22203,-0.01658 -37.83303,-0.03733 -0.67105,-8.99e-4 -0.75141,0.321177 -0.75086,0.880434 0.0161,16.187377 0.019,32.374753 0.0272,48.56216 1.9e-4,0.500806 0.0344,1.001586 0.0356,1.653196 z"
     id="path1413"
     style="stroke-width:0.188393" /><path
     fill="#65a2bb"
     opacity="1"
     stroke="none"
     d="m 101.59431,94.250241 c 0,-13.934582 1e-4,-27.774994 -1.5e-4,-41.61538 -3e-5,-1.337333 -9e-4,-1.338142 -1.35904,-1.338169 -11.925964,-1.9e-4 -23.851937,8.99e-4 -35.777891,-0.0054 -0.360753,-1.9e-4 -0.721464,-0.08111 -1.0822,-0.124349 0.0018,-0.108228 0.0045,-0.216451 0.0063,-0.324678 0.371451,-0.03697 0.742893,-0.105979 1.114353,-0.10615 11.957359,-0.0054 23.914709,-0.0045 35.872058,-0.0045 1.79117,0 1.79141,-1.63e-4 1.79142,1.840505 5e-5,15.911761 0.002,31.823504 -0.007,47.73524 -1.8e-4,0.46357 -0.11202,0.92706 -0.17179,1.39059 -0.12846,-0.006 -0.25692,-0.0133 -0.38538,-0.0199 0,-2.444534 0,-4.88902 0,-7.427719 z"
     id="path1415"
     style="stroke-width:0.188393" /><path
     fill="#f2e41e"
     opacity="1"
     stroke="none"
     d="m 147.02858,50.649544 c 3.3848,0.680227 6.31787,2.133618 8.20569,5.145144 1.57736,2.516298 3.01469,5.120311 4.51673,7.683871 1.66044,2.833914 3.34373,5.654662 4.97936,8.502795 1.14051,1.985955 2.1849,4.027233 3.33071,6.00999 1.6432,2.843455 3.36696,5.640421 5.00408,8.487273 1.13972,1.981865 2.153,4.036417 3.29217,6.018596 1.6327,2.840843 3.35293,5.631302 4.99025,8.469577 1.39038,2.41017 2.69837,4.86781 4.07633,7.28536 1.12,1.965 2.29967,3.89591 3.43446,5.85265 1.07311,1.85034 2.13592,3.70696 3.17714,5.57537 0.70677,1.26831 1.57108,2.49726 2.00432,3.85859 0.70432,2.21312 1.47887,4.48662 0.76327,6.87828 -0.40832,1.36478 -0.7727,2.75351 -1.32267,4.06172 -0.46566,1.10774 -1.16854,2.11589 -1.76845,3.16696 -0.90532,1.58622 -1.80529,3.1755 -2.72072,4.75585 -0.83882,1.44806 -1.70155,2.88229 -2.54196,4.32944 -0.88756,1.52827 -1.76373,3.06322 -2.64027,4.59786 -0.87545,1.53275 -1.74152,3.07085 -2.61844,4.60276 -0.87797,1.53381 -1.76741,3.06107 -2.6462,4.59441 -0.88992,1.55279 -1.77475,3.10845 -2.65778,4.66515 -0.26082,0.45977 -0.49871,0.93269 -0.76415,1.3897 -0.25025,0.43081 -0.52055,0.48556 -0.99543,0.19913 -1.61647,-0.97497 -3.28471,-1.86365 -4.91206,-2.82122 -1.43935,-0.84687 -2.84109,-1.75753 -4.27669,-2.61099 -1.4382,-0.85504 -2.89712,-1.67539 -4.34832,-2.50859 -1.49716,-0.85962 -3.00144,-1.70693 -4.49245,-2.57704 -1.52044,-0.88729 -3.02023,-1.81013 -4.54437,-2.691 -1.54835,-0.89486 -3.12502,-1.74085 -4.67151,-2.63887 -1.55353,-0.90208 -3.07995,-1.85068 -4.6275,-2.76321 -2.55692,-1.50771 -5.09914,-3.0423 -7.68739,-4.49452 -4.56639,-2.56217 -8.56265,-5.85071 -12.12638,-9.64322 -1.72499,-1.83571 -3.27356,-3.86519 -4.70132,-5.94477 -1.5616,-2.27461 -2.96831,-4.66636 -4.29227,-7.08916 -0.74731,-1.36768 -1.19363,-2.90006 -1.77265,-4.35939 -0.28519,-0.71877 -0.61741,-1.42436 -0.83542,-2.16332 -0.67566,-2.29058 -1.40634,-4.57213 -1.92463,-6.89974 -0.43978,-1.97493 -0.6143,-4.0089 -0.83459,-6.07996 0.18436,0.12871 0.29704,0.32062 0.40973,0.51252 0.0881,-0.0577 0.17681,-0.11507 0.26519,-0.17257 0,-0.36784 -1e-5,-0.73571 -1e-5,-1.10358 -1.6e-4,-16.031438 -3.8e-4,-32.062897 -3.8e-4,-48.094347 0,-1.339624 9.1e-4,-1.340441 1.35536,-1.34046 11.85891,-1.71e-4 23.71779,-2.7e-5 35.57667,0 0.21962,0 0.4412,-0.01939 0.65841,0.0036 0.49329,0.05156 0.68832,-0.189387 0.68404,-0.650356 z"
     id="path1417"
     style="stroke-width:0.188393" /><path
     fill="#f1e20e"
     opacity="1"
     stroke="none"
     d="m 146.96362,50.603336 c 0.0695,0.507178 -0.12579,0.748118 -0.61908,0.696564 -0.21721,-0.02274 -0.4388,-0.0036 -0.65841,-0.0036 -11.85889,-2.7e-5 -23.71777,-1.72e-4 -35.57667,0 -1.35437,1.8e-5 -1.35537,9.03e-4 -1.35537,1.34046 -9e-5,16.031449 1.3e-4,32.0629 3.8e-4,48.09435 0,0.36788 1e-5,0.73575 1e-5,1.10358 -0.0882,0.0578 -0.17681,0.11508 -0.26519,0.17258 -0.11269,-0.1919 -0.22536,-0.38381 -0.40112,-0.58791 -0.0815,-0.51303 -0.11535,-1.01381 -0.1156,-1.514607 -0.008,-16.18741 -0.0111,-32.374786 -0.0272,-48.562172 -5.7e-4,-0.559248 0.0799,-0.881532 0.75086,-0.880425 12.61099,0.02074 25.22201,0.02602 37.83302,0.03733 0.12314,1.08e-4 0.24626,0.03742 0.43438,0.10357 z"
     id="path1419"
     style="stroke-width:0.188393" /></svg>
