<?xml version="1.0" encoding="UTF-8" standalone="no"?>
<svg
   width="202.18"
   height="264.54"
   data-name="Layer 1"
   version="1.1"
   id="svg80"
   sodipodi:docname="dl.svg"
   inkscape:version="1.2.1 (9c6d41e4, 2022-07-14)"
   xmlns:inkscape="http://www.inkscape.org/namespaces/inkscape"
   xmlns:sodipodi="http://sodipodi.sourceforge.net/DTD/sodipodi-0.dtd"
   xmlns="http://www.w3.org/2000/svg"
   xmlns:svg="http://www.w3.org/2000/svg">
  <sodipodi:namedview
     id="namedview82"
     pagecolor="#ffffff"
     bordercolor="#000000"
     borderopacity="0.25"
     inkscape:showpageshadow="2"
     inkscape:pageopacity="0.0"
     inkscape:pagecheckerboard="0"
     inkscape:deskcolor="#d1d1d1"
     showgrid="false"
     inkscape:zoom="0.89211459"
     inkscape:cx="100.8839"
     inkscape:cy="119.93975"
     inkscape:window-width="1309"
     inkscape:window-height="456"
     inkscape:window-x="0"
     inkscape:window-y="0"
     inkscape:window-maximized="0"
     inkscape:current-layer="svg80" />
  <defs
     id="defs8">
    <clipPath
       id="clip-path"
       transform="translate(-12.1 23.49)">
      <path
         class="cls-1"
         d="m44.29,153.52l20.52,35.54a14.61,14.61 0 0 0 12.64,7.3l82.08,0a14.6,14.6 0 0 0 12.64,-7.3l20.52,-35.54l-44.54,-25.72a59.35,59.35 0 0 0 -59.32,0l-44.54,25.72z"
         fill="none"
         id="svg_1" />
    </clipPath>
    <clipPath
       id="clip-path-2"
       transform="translate(-12.1 23.49)">
      <path
         class="cls-1"
         d="m41.93,148.48l-20.52,-35.54a14.62,14.62 0 0 1 0,-14.59l41,-71.09a14.62,14.62 0 0 1 12.68,-7.26l41,0l0,51.39a59.31,59.31 0 0 1 -29.66,51.38l-44.5,25.71z"
         fill="none"
         id="svg_2" />
    </clipPath>
    <clipPath
       id="clip-path-3"
       transform="translate(-12.1 23.49)">
      <path
         class="cls-1"
         d="m195.78,148.48l20.52,-35.54a14.57,14.57 0 0 0 0,-14.59l-41,-71.09a14.62,14.62 0 0 0 -12.68,-7.26l-41,0l0,51.39a59.34,59.34 0 0 0 29.66,51.38l44.5,25.71z"
         fill="none"
         id="svg_3" />
    </clipPath>
  </defs>
  <path
     fill="#f2a442"
     opacity="1"
     stroke="none"
     d="m 43.488457,199.0113 c -2.02855,-3.50699 -4.01414,-6.95123 -5.98272,-10.40513 -2.0763,-3.64286 -4.12969,-7.29877 -6.20695,-10.94107 -0.78785,-1.38141 -1.57224,-2.76828 -2.44009,-4.09925 -0.47622,-0.7304 -0.35844,-1.23452 0.32174,-1.64296 1.62547,-0.97605 3.26783,-1.92403 4.90531,-2.88002 1.70157,-0.99343 3.40439,-1.98471 5.10853,-2.97368 1.69827,-0.98564 3.39842,-1.968 5.0985,-2.95049 2.21261,-1.27872 4.42581,-2.55638 6.63904,-3.83404 1.69905,-0.98082 3.40227,-1.95446 5.09673,-2.94316 1.66678,-0.97259 3.32071,-1.96718 4.98786,-2.93914 1.75451,-1.02288 3.52048,-2.02606 5.27678,-3.04586 1.57791,-0.91616 3.1278,-1.88297 4.72889,-2.75625 2.47871,-1.3519 4.96477,-2.69547 7.49726,-3.94185 1.70263,-0.83796 3.449425,-1.63021 5.250965,-2.21226 2.36919,-0.76549 4.79167,-1.3968 7.22671,-1.92099 4.67724,-1.00687 9.431688,-1.25043 14.202828,-1.08625 4.06625,0.1399 8.10727,0.54785 12.01935,1.74124 2.9421,0.89749 5.92411,1.72089 8.76281,2.88373 2.53781,1.03959 4.91315,2.48107 7.34252,3.77826 1.73353,0.92562 3.44953,1.88566 5.15169,2.8679 1.61318,0.93088 3.18942,1.92565 4.79794,2.86488 1.72697,1.00839 3.47558,1.97958 5.20918,2.9767 1.6462,0.94686 3.28829,1.90108 4.9266,2.86154 2.17377,1.27442 4.34187,2.55849 6.51287,3.83757 1.75287,1.03272 3.501,2.07364 5.26102,3.09402 2.14778,1.24522 4.30557,2.47308 6.45942,3.70782 1.58297,0.90745 3.1814,1.78935 4.7431,2.73204 0.68697,0.41467 0.94682,0.90969 0.42786,1.79057 -3.04263,5.16471 -6.0208,10.36756 -8.99889,15.57005 -2.08312,3.63907 -4.11029,7.31025 -6.20156,10.94462 -1.87568,3.25976 -3.64496,6.59923 -5.777,9.68537 -1.08317,1.56787 -2.75551,2.80693 -4.3499,3.92637 -2.88281,2.02409 -6.26568,2.21183 -9.66727,2.21059 -26.3254,-0.01 -52.650788,-0.004 -78.976193,-0.006 -2.59477,-1.8e-4 -5.15295,-0.33639 -7.48986,-1.49226 -2.69142,-1.33123 -4.86511,-3.28751 -6.37755,-5.93585 -1.53964,-2.69598 -3.12537,-5.36558 -4.68703,-8.04902 -0.26019,-0.4471 -0.50054,-0.90574 -0.80049,-1.41751 z"
     id="path1409"
     style="stroke-width:0.208939" />
  <path
     fill="#70a8bf"
     opacity="1"
     stroke="none"
     d="m 5.2869869,132.12599 c -2.20005,-3.79072 -2.98132,-7.66565 -1.73217,-11.92237 0.85624,-2.91774 2.58555,-5.34409 3.99245,-7.95158 1.44764,-2.68308 3.0246501,-5.2965 4.5511601,-7.93685 1.35028,-2.33556 2.72246,-4.658539 4.06021,-7.001189 1.45611,-2.549927 2.8674,-5.125507 4.3286,-7.672467 1.28516,-2.2401 2.63587,-4.4427 3.91431,-6.68655 1.27799,-2.24309 2.48561,-4.526188 3.75573,-6.773864 0.89759,-1.588429 1.85523,-3.142778 2.7728,-4.720084 0.9871,-1.696855 1.96211,-3.400757 2.93609,-5.105199 0.97275,-1.702323 1.93371,-3.411383 2.90712,-5.113326 0.97449,-1.703811 1.95999,-3.401337 2.93694,-5.10376 0.99275,-1.730007 1.97953,-3.463423 2.97153,-5.193857 0.94383,-1.646408 1.91469,-3.277841 2.83149,-4.939148 1.61836,-2.932622 3.61595,-5.411475 6.75686,-6.928941 2.25225,-1.088143 4.52591,-1.602222 6.99422,-1.598694 13.16309,0.01879 26.326215,0.006 39.489325,0.006 1.20775,-6.7e-5 1.359978,0.15976 1.359938,1.407554 -4.2e-4,16.610602 0.0359,33.221351 -0.0296,49.831689 -0.0147,3.7386 -0.131928,7.480087 -0.897498,11.192557 -0.6582,3.191769 -1.24093,6.392259 -2.49712,9.405889 -1.4313,3.43366 -2.72627,6.962 -4.54285,10.18887 -3.22845,5.73485 -7.30739,10.86956 -12.382155,15.12489 -2.2797,1.91162 -4.58091,3.82792 -7.05088,5.47432 -2.86584,1.91027 -5.92943,3.52352 -8.90393,5.27129 -2.28846,1.34466 -4.56079,2.71717 -6.86044,4.04232 -2.69147,1.5509 -5.42018,3.03746 -8.10424,4.6008 -2.62471,1.52882 -5.1968,3.14799 -7.82323,4.67371 -2.2297,1.29528 -4.52195,2.48283 -6.75327,3.7755 -2.08707,1.20906 -4.12991,2.49448 -6.19341,3.74435 -0.5588,0.33847 -1.11058,0.69095 -1.68582,0.99924 -0.70429,0.37743 -1.13903,-0.0738 -1.44801,-0.60292 -1.17067,-2.00595 -2.30595,-4.03257 -3.45913,-6.04876 -1.89267,-3.30909 -3.7961,-6.61204 -5.68155,-9.92522 -1.54316,-2.71168 -3.05259,-5.44258 -4.60264,-8.15027 -1.8077901,-3.15789 -3.6449601,-6.29899 -5.4644301,-9.45023 -0.15615,-0.27046 -0.27533,-0.56228 -0.44635,-0.91339 M 98.881412,86.476394 c 0,2.71108 0,5.42219 0,8.13333 0.14246,0.007 0.28492,0.0147 0.42739,0.0221 0.0662,-0.51407 0.19025,-1.02812 0.19054,-1.54224 0.01,-17.647079 0.008,-35.294157 0.008,-52.941234 -10e-6,-2.041419 -2.1e-4,-2.041238 -1.98679,-2.041228 -13.2614,1e-5 -26.522815,-9.97e-4 -39.784235,0.005 -0.41197,2.01e-4 -0.82392,0.07678 -1.23589,0.117737 -0.002,0.120015 -0.006,0.240047 -0.007,0.360078 0.40008,0.04796 0.80012,0.13769 1.20023,0.13791 13.22659,0.007 26.453195,0.006 39.679795,0.006 1.50612,2e-5 1.50723,8.28e-4 1.50727,1.484099 2.1e-4,15.349819 1.5e-4,30.699648 1.5e-4,46.258408 z"
     id="path1411"
     style="stroke-width:0.208939" />
  <path
     fill="#faf6af"
     opacity="1"
     stroke="none"
     d="m 113.17116,119.87978 c -0.36325,-0.78279 -0.67579,-1.50321 -1.02865,-2.20332 -0.73614,-1.46055 -1.54182,-2.88818 -2.22454,-4.37271 -0.42456,-0.92319 -0.66778,-1.9289 -1.00756,-2.89223 -0.46297,-1.31259 -0.97276,-2.60971 -1.39786,-3.93419 -0.20833,-0.64903 -0.22666,-1.35684 -0.40696,-2.01732 -0.83628,-3.06309 -1.52267,-6.135269 -1.56102,-9.344746 -0.0529,-4.40812 -0.34767,-8.81421 -0.36284,-13.221787 -0.0496,-14.343823 -0.0187,-28.687915 -0.019,-43.031909 -2e-5,-1.73531 0.0527,-1.789863 1.73498,-1.789853 12.70766,1.31e-4 25.41534,-0.008 38.12299,0.01031 1.66333,0.002 3.34596,0.01076 4.98297,0.258713 1.11905,0.169491 2.1946,0.713206 3.2541,1.171646 2.43779,1.054864 4.24137,2.91722 5.87324,4.921727 0.79357,0.974766 1.32755,2.161479 1.97441,3.254984 1.04664,1.769365 2.11158,3.528406 3.1275,5.315258 0.94698,1.665654 1.81635,3.375444 2.76365,5.040909 0.97663,1.717094 2.0216,3.39524 3.00719,5.107387 0.69219,1.202495 1.3128,2.446223 2.00596,3.648125 0.73234,1.269804 1.53044,2.501609 2.26687,3.769145 0.6357,1.094235 1.20895,2.22466 1.83875,3.322473 1.03993,1.812699 2.10611,3.610338 3.15568,5.41752 0.90965,1.5662 1.82507,3.129254 2.7134,4.707522 0.98944,1.75793 1.9386,3.53855 2.9281,5.29645 1.31216,2.33121 2.63265,4.658 3.97516,6.97186 1.2742,2.196077 2.60939,4.357027 3.86686,6.562496 1.52943,2.68248 2.98281,5.40829 4.51127,8.09135 1.51169,2.65374 3.1265,5.24993 4.58976,7.92941 0.5154,0.94381 0.8931,2.03868 1.01805,3.10168 0.17615,1.49865 0.0156,3.03354 0.077,4.5498 0.10492,2.60696 -1.04289,4.77166 -2.2703,6.94188 -1.2771,2.25811 -2.41823,4.59328 -3.70273,6.84693 -1.20236,2.10949 -2.54716,4.13739 -3.7695,6.236 -1.26116,2.1653 -2.43628,4.38053 -3.67542,6.5589 -0.96648,1.69903 -1.98975,3.36573 -2.95783,5.0639 -0.98591,1.72946 -1.92926,3.48321 -2.90236,5.22011 -0.87234,1.55705 -1.74394,3.1149 -2.64776,4.65369 -0.399,0.67932 -1.12271,0.81209 -1.74087,0.515 -1.12659,-0.54158 -2.18185,-1.23304 -3.25991,-1.87371 -1.70209,-1.01155 -3.39118,-2.04517 -5.09914,-3.04668 -1.83456,-1.07577 -3.6839,-2.12637 -5.528,-3.18592 -2.17419,-1.2492 -4.35448,-2.48787 -6.523,-3.74681 -1.66085,-0.96425 -3.30322,-1.96021 -4.96169,-2.92862 -1.68026,-0.98111 -3.37645,-1.93501 -5.05372,-2.92113 -1.21113,-0.7121 -2.3892,-1.48085 -3.60682,-2.18121 -1.20739,-0.69448 -2.44978,-1.32768 -3.66942,-2.00124 -1.09625,-0.60544 -2.19481,-1.2083 -3.26964,-1.8503 -1.22831,-0.7337 -2.45675,-1.47222 -3.64022,-2.27487 -2.21657,-1.50333 -4.534,-2.89754 -6.56614,-4.62363 -2.80131,-2.37942 -5.48378,-4.92328 -8.01202,-7.59113 -1.69704,-1.79074 -3.05995,-3.90267 -4.53085,-5.90142 -0.82988,-1.1277 -1.57569,-2.31723 -2.39181,-3.55044 m -7.17672,-25.403196 c 0.32371,2.226837 0.51727,4.482637 1.00499,6.672946 0.57482,2.58145 1.38519,5.11182 2.13455,7.65222 0.24177,0.81955 0.61023,1.60208 0.92651,2.39925 0.64216,1.61847 1.13716,3.31798 1.96598,4.83481 1.46833,2.68702 3.02848,5.33962 4.76039,7.8623 1.58346,2.30638 3.30093,4.55719 5.21404,6.59312 3.95239,4.20612 8.38448,7.8533 13.44888,10.69488 2.87052,1.61061 5.68999,3.31257 8.52576,4.9847 1.71632,1.01205 3.40921,2.0641 5.13218,3.06456 1.71515,0.99596 3.46376,1.93421 5.18099,2.92667 1.69034,0.97693 3.3537,2.00041 5.03996,2.98448 1.65363,0.96501 3.32196,1.90472 4.9824,2.85808 1.60947,0.92407 3.22748,1.83389 4.82255,2.78219 1.59218,0.94653 3.14679,1.95651 4.74309,2.89573 1.80484,1.06201 3.65502,2.04761 5.44778,3.12892 0.52667,0.31764 0.82645,0.25693 1.10399,-0.22086 0.29438,-0.50686 0.55822,-1.03136 0.84749,-1.54126 0.97933,-1.72647 1.96067,-3.45179 2.94763,-5.17394 0.97463,-1.70056 1.96105,-3.39438 2.9348,-5.09546 0.97254,-1.69898 1.93308,-3.40483 2.90399,-5.10474 0.97215,-1.70202 1.94387,-3.40434 2.92822,-5.09931 0.93207,-1.60495 1.88889,-3.19561 2.8192,-4.8016 1.01525,-1.7527 2.01337,-3.51531 3.01743,-5.2745 0.66535,-1.16572 1.44486,-2.28382 1.96133,-3.51236 0.60994,-1.45088 1.01407,-2.99108 1.46692,-4.5047 0.79363,-2.65248 -0.0657,-5.17394 -0.84651,-7.62842 -0.48051,-1.50979 -1.43907,-2.87275 -2.22292,-4.2794 -1.15479,-2.07218 -2.3335,-4.13128 -3.52364,-6.18341 -1.25855,-2.17015 -2.56687,-4.31162 -3.80902,-6.49093 -1.52823,-2.681199 -2.97889,-5.406869 -4.52089,-8.079886 -1.81589,-3.14785 -3.72373,-6.24264 -5.53448,-9.3933 -1.26341,-2.19835 -2.3872,-4.476973 -3.65121,-6.674979 -1.81567,-3.157328 -3.72742,-6.25933 -5.54983,-9.412891 -1.27077,-2.198996 -2.42906,-4.462894 -3.69396,-6.665435 -1.81401,-3.158749 -3.68088,-6.287126 -5.5224,-9.430105 -1.66585,-2.84314 -3.25993,-5.731145 -5.00932,-8.521869 -2.0937,-3.339961 -5.34666,-4.951858 -9.24472,-5.808753 -0.13656,-0.0221 -0.27311,-0.06353 -0.40967,-0.06364 -13.98636,-0.01248 -27.97273,-0.01839 -41.95907,-0.0414 -0.74424,-9.97e-4 -0.83336,0.356205 -0.83275,0.976454 0.0179,17.952762 0.0211,35.905524 0.0302,53.858318 2.1e-4,0.55542 0.0382,1.11082 0.0395,1.83349 z"
     id="path1413"
     style="stroke-width:0.208939" />
  <path
     fill="#65a2bb"
     opacity="1"
     stroke="none"
     d="m 98.881422,86.371574 c 0,-15.454283 1.1e-4,-30.804122 -1.7e-4,-46.153932 -3e-5,-1.483182 -0.001,-1.484079 -1.50726,-1.484109 -13.2266,-2.1e-4 -26.453205,9.97e-4 -39.679795,-0.006 -0.40009,-2.1e-4 -0.80015,-0.08995 -1.20022,-0.13791 0.002,-0.120031 0.006,-0.240057 0.007,-0.360087 0.41196,-0.041 0.82391,-0.117537 1.23588,-0.117727 13.26142,-0.006 26.522815,-0.005 39.784245,-0.005 1.98651,0 1.98678,-1.8e-4 1.98679,2.04123 5e-5,17.647088 0.002,35.294155 -0.008,52.941215 -2e-4,0.51413 -0.12423,1.02816 -0.19052,1.54225 -0.14247,-0.007 -0.28494,-0.0147 -0.42741,-0.0221 0,-2.71114 0,-5.42222 0,-8.23778 z"
     id="path1415"
     style="stroke-width:0.208939" />
  <path
     fill="#f2e41e"
     opacity="1"
     stroke="none"
     d="m 149.27072,38.015808 c 3.75394,0.754412 7.00689,2.366309 9.1006,5.70627 1.74938,2.790724 3.34347,5.678729 5.00932,8.521869 1.84153,3.142979 3.7084,6.271356 5.52241,9.430105 1.26489,2.202542 2.42318,4.46644 3.69395,6.665436 1.82241,3.15356 3.73416,6.255561 5.54982,9.412889 1.26402,2.198006 2.38781,4.476627 3.65122,6.674977 1.81076,3.15067 3.71859,6.24545 5.53448,9.39327 1.54201,2.673017 2.99265,5.398687 4.52089,8.079886 1.24215,2.17931 2.55047,4.3208 3.80902,6.49094 1.19014,2.05213 2.36886,4.11123 3.52364,6.18341 0.78385,1.40663 1.74242,2.76961 2.22291,4.27941 0.78113,2.45448 1.64015,4.97592 0.84651,7.62842 -0.45285,1.51362 -0.85697,3.0538 -1.46692,4.50469 -0.51644,1.22854 -1.29598,2.34664 -1.96132,3.51234 -1.00405,1.75921 -2.00217,3.52182 -3.01744,5.27452 -0.9303,1.60599 -1.88712,3.19663 -2.81918,4.80161 -0.98436,1.69494 -1.95608,3.39729 -2.92822,5.0993 -0.97092,1.69991 -1.93145,3.40575 -2.904,5.10473 -0.97372,1.70109 -1.96017,3.39491 -2.9348,5.09548 -0.98697,1.72213 -1.9683,3.44745 -2.94763,5.17392 -0.28927,0.50992 -0.5531,1.03441 -0.84749,1.54126 -0.27754,0.4778 -0.57732,0.53852 -1.10399,0.22085 -1.79276,-1.0813 -3.64294,-2.0669 -5.44777,-3.1289 -1.59632,-0.93923 -3.15093,-1.9492 -4.7431,-2.89574 -1.59505,-0.94829 -3.21308,-1.85811 -4.82254,-2.78218 -1.66044,-0.95337 -3.32878,-1.89308 -4.9824,-2.85809 -1.68626,-0.98406 -3.34961,-2.00754 -5.03997,-2.98448 -1.71722,-0.99245 -3.46584,-1.9307 -5.18099,-2.92666 -1.72295,-1.00046 -3.41584,-2.05251 -5.13217,-3.06456 -2.83578,-1.67214 -5.65525,-3.3741 -8.52577,-4.98469 -5.0644,-2.8416 -9.49649,-6.48879 -13.44888,-10.69491 -1.91311,-2.03591 -3.63057,-4.28672 -5.21404,-6.5931 -1.73191,-2.52268 -3.29203,-5.17527 -4.76038,-7.8623 -0.82881,-1.51684 -1.32381,-3.21634 -1.96598,-4.83482 -0.31629,-0.79716 -0.68474,-1.5797 -0.92653,-2.39925 -0.74934,-2.54039 -1.55971,-5.07076 -2.13453,-7.65222 -0.48774,-2.190309 -0.68129,-4.446109 -0.92561,-6.743026 0.20447,0.14274 0.32944,0.35558 0.45442,0.56841 0.0977,-0.064 0.19609,-0.12762 0.29411,-0.19139 0,-0.40796 -1e-5,-0.81595 -1e-5,-1.22394 -1.8e-4,-17.779812 -4.2e-4,-35.559652 -4.2e-4,-53.339482 0,-1.485722 0.001,-1.486628 1.50317,-1.48665 13.15224,-1.89e-4 26.30444,-3e-5 39.45664,0 0.24357,0 0.48932,-0.0215 0.73022,0.004 0.54709,0.05718 0.76339,-0.210041 0.75864,-0.721283 z"
     id="path1417"
     style="stroke-width:0.208939" />
  <path
     fill="#f1e20e"
     opacity="1"
     stroke="none"
     d="m 149.19868,37.96456 c 0.0771,0.562491 -0.13951,0.829708 -0.6866,0.772531 -0.2409,-0.02522 -0.48666,-0.004 -0.73022,-0.004 -13.15221,-3e-5 -26.30441,-1.91e-4 -39.45664,0 -1.50207,2e-5 -1.50318,10e-4 -1.50318,1.486649 -1e-4,17.779829 1.4e-4,35.55966 4.2e-4,53.339494 0,0.408 10e-6,0.81599 10e-6,1.22393 -0.0978,0.0641 -0.19609,0.12763 -0.29411,0.1914 -0.12498,-0.21283 -0.24994,-0.42566 -0.44487,-0.65202 -0.0904,-0.56898 -0.12793,-1.12438 -0.1282,-1.67979 -0.009,-17.952801 -0.0123,-35.905563 -0.0302,-53.858335 -6.3e-4,-0.620239 0.0886,-0.977671 0.83275,-0.976444 13.98634,0.023 27.97271,0.02886 41.95906,0.0414 0.13657,1.19e-4 0.27312,0.0415 0.48176,0.114865 z"
     id="path1419"
     style="stroke-width:0.208939" />
</svg>
